<?xml version="1.0" standalone="no"?>
<!DOCTYPE svg PUBLIC "-//W3C//DTD SVG 20010904//EN"
 "http://www.w3.org/TR/2001/REC-SVG-20010904/DTD/svg10.dtd">
<svg version="1.0" xmlns="http://www.w3.org/2000/svg"
 width="512.000000pt" height="512.000000pt" viewBox="0 0 512.000000 512.000000"
 preserveAspectRatio="xMidYMid meet">
<metadata>
Created by potrace 1.14, written by Peter Selinger 2001-2017
</metadata>
<g transform="translate(0.000000,512.000000) scale(0.100000,-0.100000)"
fill="#000000" stroke="none">
<path d="M0 2560 l0 -2560 2560 0 2560 0 0 2560 0 2560 -2560 0 -2560 0 0
-2560z m2650 1717 c115 -32 188 -54 215 -66 295 -133 486 -278 638 -483 142
-192 211 -338 274 -583 l27 -100 3 -867 4 -868 -1252 0 -1252 0 6 138 c4 113
9 147 26 182 12 24 21 48 21 53 0 24 81 138 137 193 56 56 91 76 353 209 317
160 362 192 416 296 l29 54 3 243 c2 133 1 242 -2 242 -3 0 -45 -20 -93 -45
-107 -55 -142 -93 -166 -176 -62 -222 -79 -262 -129 -315 -32 -34 -65 -58 -96
-69 -141 -50 -168 -56 -209 -51 -24 3 -131 45 -240 93 -215 95 -257 125 -287
204 -15 40 -16 104 -14 651 l3 607 53 53 c28 30 52 59 52 66 0 7 -25 62 -55
122 -65 130 -72 184 -30 226 l25 25 723 -4 722 -4 95 -26z m1376 -3251 l34
-34 0 -182 0 -182 -34 -34 -34 -34 -1436 2 -1436 3 -27 28 -28 27 0 189 c0
175 1 191 20 211 11 12 29 26 40 31 11 4 661 8 1443 8 l1424 1 34 -34z"/>
<path d="M1392 3530 c-67 -41 -90 -125 -54 -200 31 -63 133 -90 203 -55 92 48
92 212 -1 257 -48 23 -108 22 -148 -2z"/>
</g>
</svg>
